<svg xmlns="http://www.w3.org/2000/svg" viewBox="0 0 197.11 219.51"><defs><style>.cls-1{fill:#fff2c1;}.cls-2{fill:#f4d670;}.cls-3{fill:#00c272;}.cls-4{fill:#e9af24;}.cls-5{fill:#00a564;}.cls-6{fill:#efc24e;}.cls-7{fill:#d80;}.cls-8{fill:#f9e88f;}</style></defs><g id="Layer_1" data-name="Layer 1"><path class="cls-1" d="M98.55,214a20.65,20.65,0,0,1-10.32-2.77l-72.4-41.8A20.72,20.72,0,0,1,5.5,151.55V68A20.7,20.7,0,0,1,15.83,50.07l72.4-41.8a20.63,20.63,0,0,1,20.65,0l72.4,41.8A20.7,20.7,0,0,1,191.61,68v83.59a20.72,20.72,0,0,1-10.33,17.89l-72.4,41.8A20.66,20.66,0,0,1,98.55,214Z"/><path class="cls-2" d="M98.55,11a15.17,15.17,0,0,1,7.58,2l72.4,41.8A15.16,15.16,0,0,1,186.11,68v83.59a15.16,15.16,0,0,1-7.58,13.13l-72.4,41.8a15.15,15.15,0,0,1-15.15,0l-72.4-41.8A15.16,15.16,0,0,1,11,151.55V68a15.16,15.16,0,0,1,7.58-13.13L91,13a15.16,15.16,0,0,1,7.57-2m0-11A26.19,26.19,0,0,0,85.48,3.5L13.08,45.3A26.23,26.23,0,0,0,0,68v83.59a26.23,26.23,0,0,0,13.08,22.66L85.48,216a26.14,26.14,0,0,0,26.15,0L184,174.21a26.23,26.23,0,0,0,13.08-22.66V68A26.23,26.23,0,0,0,184,45.3L111.63,3.5A26.2,26.2,0,0,0,98.55,0Z"/><path class="cls-2" d="M153.63,69a3,3,0,0,1,2.5,3c-1,89.62-55.46,106.87-55.46,106.87l-.78-.28c-6.68-2.53-53.75-23.35-54.67-106.7a3,3,0,0,1,2.4-3,104.37,104.37,0,0,0,26.12-9.15C83.05,55.07,94,46,98.52,42.1a3,3,0,0,1,4.1.18A91.71,91.71,0,0,0,126,59.79,90.73,90.73,0,0,0,153.63,69Z"/><path class="cls-3" d="M115.2,113.25l-12.4,12.61a3.51,3.51,0,0,1-2.5,1h0a3.55,3.55,0,0,1-2.51-1.08l-13.49-14.1a3.5,3.5,0,0,1,5-4.84l11,11.49,14.42-14.66C115,106.85,115.14,110,115.2,113.25Z"/><path class="cls-4" d="M153.63,69a3,3,0,0,1,2.5,3c-1,89.62-55.46,106.87-55.46,106.87s-1,.21-.78-.28c32.9-65.35,1.63-137.46,2.73-136.32A91.71,91.71,0,0,0,126,59.79,90.73,90.73,0,0,0,153.63,69Z"/><path class="cls-5" d="M126.26,102,115.2,113.25c-.06-3.23-.21-6.4-.45-9.53l6.52-6.63a3.5,3.5,0,1,1,5,4.9Z"/><path class="cls-6" d="M100.3,48.46A97.46,97.46,0,0,0,123.16,65.1a96.63,96.63,0,0,0,26.92,9.41c-.43,18.48-3.28,35.08-8.48,49.38A96.71,96.71,0,0,1,124,154.49c-8.79,10.12-18.24,15.78-23.33,18-4.15-1.81-15.15-7.5-25.63-20.63C60,132.91,52,106.83,51.26,74.29a110.51,110.51,0,0,0,25.2-9.15C85,60.83,94.37,53.44,100.3,48.46m.18-7.09a3,3,0,0,0-2,.73C94,46,83.05,55.07,73.74,59.79a104.37,104.37,0,0,1-26.12,9.15,3,3,0,0,0-2.4,3c.92,83.35,48,104.17,54.67,106.7l.78.28S155.09,161.63,156.13,72a3,3,0,0,0-2.5-3A90.73,90.73,0,0,1,126,59.79a91.71,91.71,0,0,1-23.33-17.51,3,3,0,0,0-2.14-.91Z"/><path class="cls-7" d="M102.62,42.28c-.28-.29,1.47,4,3.73,11.61A96.66,96.66,0,0,0,123.16,65.1a96.63,96.63,0,0,0,26.92,9.41c-.43,18.48-3.28,35.08-8.48,49.38A96.71,96.71,0,0,1,124,154.49a72.82,72.82,0,0,1-20.71,16.71c-1.06,2.47-2.2,4.94-3.44,7.4h0l.78.28S155.09,161.63,156.13,72a3,3,0,0,0-1.5-2.61,2.85,2.85,0,0,0-1-.36c-1.78-.29-3.73-.66-5.82-1.14l-1.59-.38a90.07,90.07,0,0,1-14.35-4.89c-.65-.28-1.29-.57-2-.88-1.31-.6-2.63-1.26-4-2A91.71,91.71,0,0,1,102.62,42.28Z"/><circle class="cls-5" cx="59.07" cy="136.97" r="25.27"/><path class="cls-8" d="M71.35,146.48a1.21,1.21,0,0,0-1.62-.54,5,5,0,0,1-3.23,0c-.45-1.15-1.13-2.46-1.74-4.09.22,0,.45,0,.7,0a5.57,5.57,0,0,0,3.83-1.34,1.2,1.2,0,1,0-1.62-1.78c-1.29,1.17-3.49.58-3.69.52a19.43,19.43,0,0,1-.52-4.42c.51.05,1,.09,1.46.09a6,6,0,0,0,4-1.19,1.21,1.21,0,0,0-1.58-1.82c-.3.26-1.27.79-3.76.51.21-1.76.61-3.16.82-4.4a6.58,6.58,0,0,0,5.27-3.71,1.21,1.21,0,0,0-2.14-1.12,4.23,4.23,0,0,1-3.13,2.41,4.31,4.31,0,0,0-.7-1.52,6.45,6.45,0,0,0-1.54-1.45,10.31,10.31,0,0,0,2.48-3.56,1.21,1.21,0,1,0-2.26-.84,8.79,8.79,0,0,1-2.37,3.1,1.37,1.37,0,0,0-.19.23,8.63,8.63,0,0,0-3.15-.27,3.27,3.27,0,0,0-.07-.51,5.67,5.67,0,0,0-2.9-3.37,1.2,1.2,0,0,0-1.65.41,1.22,1.22,0,0,0,.41,1.66c1.8,1.07,2,2,1.76,2.38a1.77,1.77,0,0,0-.06.17,7.18,7.18,0,0,0-2.65,2.68,5.67,5.67,0,0,0-5-1.47A1.21,1.21,0,0,0,47,125.6c.25,0,2.55-.41,3.34,1.65l0,.06a19.57,19.57,0,0,0-.67,2.94,1,1,0,0,0-.16-.12,6.86,6.86,0,0,0-5.12,0,1,1,0,1,0,.81,1.84,4.88,4.88,0,0,1,3.5,0,1,1,0,0,0,.4.09,1.17,1.17,0,0,0,.37-.08,27,27,0,0,0-.08,3.31c-1-.16-3.08-.08-5,3a1.2,1.2,0,0,0,.39,1.66,1.12,1.12,0,0,0,.63.18,1.23,1.23,0,0,0,1-.56c1.35-2.17,2.48-1.91,2.58-1.88a1.16,1.16,0,0,0,.58.06,24.42,24.42,0,0,0,.76,3.46,6.11,6.11,0,0,0-4.12,5.51A1.22,1.22,0,0,0,47.34,148h.13A1.19,1.19,0,0,0,48.66,147a3.78,3.78,0,0,1,2.4-3.46.31.31,0,0,0,.1-.05,21.77,21.77,0,0,0,2.46,4.61,4.27,4.27,0,0,0-.41.26,6,6,0,0,0-2.31,4.42A1.2,1.2,0,0,0,52,154.05h.12A1.2,1.2,0,0,0,53.3,153a3.23,3.23,0,0,1,1.67-2.9,1.07,1.07,0,0,0,.27-.07,9.69,9.69,0,0,0,2.84,2,5,5,0,0,0,.65,4.56,1.21,1.21,0,0,0,1,.54,1.14,1.14,0,0,0,.66-.2,1.2,1.2,0,0,0,.34-1.67,2.45,2.45,0,0,1-.34-2.54.26.26,0,0,1,0-.08,7.69,7.69,0,0,0,3-.45,1.14,1.14,0,0,0,.18.32c.23.27,2.36,2.65,4.86,2.71h0a1.21,1.21,0,0,0,0-2.41c-1.15,0-2.52-1.25-3-1.79a4.74,4.74,0,0,0,1-1.24,3.44,3.44,0,0,0,.42-1.28,8.62,8.62,0,0,0,1.41.12,5.49,5.49,0,0,0,2.42-.51A1.22,1.22,0,0,0,71.35,146.48Z"/></g></svg>